<mxfile host="Electron" modified="2023-11-03T15:58:09.344Z" agent="Mozilla/5.0 (Windows NT 10.0; Win64; x64) AppleWebKit/537.36 (KHTML, like Gecko) draw.io/21.6.8 Chrome/114.0.5735.289 Electron/25.5.0 Safari/537.36" etag="cw8W0DEKz37C7L-2Z_Wx" version="21.6.8" type="device">
  <diagram name="Page-1" id="DbLo_gUFurGZbWOFDJ3O">
    <mxGraphModel dx="1728" dy="1037" grid="1" gridSize="10" guides="1" tooltips="1" connect="1" arrows="1" fold="1" page="1" pageScale="1" pageWidth="2336" pageHeight="1654" math="0" shadow="0">
      <root>
        <mxCell id="0" />
        <mxCell id="1" parent="0" />
        <mxCell id="P6J_Eufu3Yy9P1KESDC--14" value="&lt;p style=&quot;margin:0px;margin-top:4px;margin-left:10px;text-align:left;&quot;&gt;&lt;b&gt;STD &lt;/b&gt;messageSender&lt;/p&gt;" style="html=1;shape=mxgraph.sysml.package;html=1;overflow=fill;whiteSpace=wrap;labelX=133.2;" parent="1" vertex="1">
          <mxGeometry x="200" y="240" width="650" height="1060" as="geometry" />
        </mxCell>
        <mxCell id="P6J_Eufu3Yy9P1KESDC--4" style="edgeStyle=orthogonalEdgeStyle;rounded=0;orthogonalLoop=1;jettySize=auto;html=1;" parent="1" source="P6J_Eufu3Yy9P1KESDC--1" target="P6J_Eufu3Yy9P1KESDC--3" edge="1">
          <mxGeometry relative="1" as="geometry" />
        </mxCell>
        <mxCell id="P6J_Eufu3Yy9P1KESDC--1" value="" style="shape=ellipse;html=1;fillColor=strokeColor;fontSize=18;fontColor=#ffffff;" parent="1" vertex="1">
          <mxGeometry x="470" y="400" width="40" height="40" as="geometry" />
        </mxCell>
        <mxCell id="P6J_Eufu3Yy9P1KESDC--5" value="msg = messageChannel.read()" style="edgeStyle=orthogonalEdgeStyle;rounded=0;orthogonalLoop=1;jettySize=auto;html=1;" parent="1" source="P6J_Eufu3Yy9P1KESDC--3" edge="1">
          <mxGeometry relative="1" as="geometry">
            <mxPoint x="490" y="590" as="targetPoint" />
          </mxGeometry>
        </mxCell>
        <mxCell id="P6J_Eufu3Yy9P1KESDC--3" value="waitingForMessage" style="shape=rect;rounded=1;html=1;whiteSpace=wrap;align=center;" parent="1" vertex="1">
          <mxGeometry x="430" y="490" width="120" height="50" as="geometry" />
        </mxCell>
        <mxCell id="P6J_Eufu3Yy9P1KESDC--13" value="&lt;div&gt;void rotateMessage(Message&amp;amp; message){&lt;/div&gt;&lt;div&gt;&amp;nbsp; &amp;nbsp; uint64_t msg = 0;&lt;/div&gt;&lt;div&gt;&amp;nbsp; &amp;nbsp; uint64_t mloc=message.msg;&lt;/div&gt;&lt;div&gt;&amp;nbsp; &amp;nbsp; int n = message.nofBytes*8;&lt;/div&gt;&lt;div&gt;&amp;nbsp; &amp;nbsp; if(n&amp;gt;0){&lt;/div&gt;&lt;div&gt;&amp;nbsp; &amp;nbsp; &amp;nbsp; &amp;nbsp; for (int i=0; i&amp;lt;n; i++){&lt;/div&gt;&lt;div&gt;&amp;nbsp; &amp;nbsp; &amp;nbsp; &amp;nbsp; &amp;nbsp; &amp;nbsp; msg |= (mloc&amp;amp;1);&lt;/div&gt;&lt;div&gt;&amp;nbsp; &amp;nbsp; &amp;nbsp; &amp;nbsp; &amp;nbsp; &amp;nbsp; msg = msg &amp;lt;&amp;lt; 1;&lt;/div&gt;&lt;div&gt;&amp;nbsp; &amp;nbsp; &amp;nbsp; &amp;nbsp; &amp;nbsp; &amp;nbsp; mloc=mloc&amp;gt;&amp;gt;1;&lt;/div&gt;&lt;div&gt;&amp;nbsp; &amp;nbsp; &amp;nbsp; &amp;nbsp; }&lt;/div&gt;&lt;div&gt;&amp;nbsp; &amp;nbsp; }&lt;/div&gt;&lt;div&gt;&amp;nbsp; &amp;nbsp; message.msg = msg;&lt;/div&gt;&lt;div&gt;}&lt;/div&gt;&lt;div&gt;&lt;br&gt;&lt;/div&gt;&lt;div&gt;Message&amp;amp; constructShootMessage(uint8_t&amp;amp; damage, uint8_t&amp;amp; playerNum, uint8_t&amp;amp; teamNum=0){&lt;/div&gt;&lt;div&gt;&amp;nbsp; &amp;nbsp; if(playerNum &amp;gt; 32){&lt;/div&gt;&lt;div&gt;&amp;nbsp; &amp;nbsp; &amp;nbsp; &amp;nbsp; throw std::runtime_error(&quot;PlayerNum exceeds 5-bit max of 31&quot;);&lt;/div&gt;&lt;div&gt;&amp;nbsp; &amp;nbsp; } else if(damage &amp;gt; 127){&lt;/div&gt;&lt;div&gt;&amp;nbsp; &amp;nbsp; &amp;nbsp; &amp;nbsp; throw std::runtime_error(&quot;damage exceeds 7-bit max of 127&quot;);&lt;/div&gt;&lt;div&gt;&amp;nbsp; &amp;nbsp; } else if(teamNum &amp;gt; 7){&lt;/div&gt;&lt;div&gt;&amp;nbsp; &amp;nbsp; &amp;nbsp; &amp;nbsp; throw std::runtime_error(&quot;teamNum exceeds 3-bit max of 7&quot;);&lt;/div&gt;&lt;div&gt;&amp;nbsp; &amp;nbsp; }&lt;/div&gt;&lt;div&gt;&amp;nbsp; &amp;nbsp; uint64_t message = 0xAA0// start with 10101010 0&lt;/div&gt;&lt;div&gt;&amp;nbsp; &amp;nbsp; message &amp;lt;&amp;lt;= 9;&lt;/div&gt;&lt;div&gt;&amp;nbsp; &amp;nbsp; message |= damage;&lt;/div&gt;&lt;div&gt;&amp;nbsp; &amp;nbsp; message &amp;lt;&amp;lt;= 7;&lt;/div&gt;&lt;div&gt;&amp;nbsp; &amp;nbsp; message |= playerNum;&lt;/div&gt;&lt;div&gt;&amp;nbsp; &amp;nbsp; message &amp;lt;&amp;lt;= 5;&lt;/div&gt;&lt;div&gt;&amp;nbsp; &amp;nbsp; message |= teamNum;&lt;/div&gt;&lt;div&gt;&amp;nbsp; &amp;nbsp; uint8_t checksum = generateChecksum(message, 2);&lt;/div&gt;&lt;div&gt;&amp;nbsp; &amp;nbsp; message &amp;lt;&amp;lt;= 8;&lt;/div&gt;&lt;div&gt;&amp;nbsp; &amp;nbsp; message |= checksum;&lt;/div&gt;&lt;div&gt;&amp;nbsp; &amp;nbsp; Message shootMessage = Message(message, 3);&lt;/div&gt;&lt;div&gt;&amp;nbsp; &amp;nbsp; rotateMessage(shootMessage);&lt;/div&gt;&lt;div&gt;&amp;nbsp; &amp;nbsp; return shootMessage;&lt;/div&gt;&lt;div&gt;}&lt;/div&gt;&lt;div&gt;&lt;br&gt;&lt;/div&gt;&lt;div&gt;uint8_t generateChecksum(uint64_t message, int nofBytes){&lt;/div&gt;&lt;div&gt;&amp;nbsp; &amp;nbsp; uint8_t result;&lt;/div&gt;&lt;div&gt;&amp;nbsp; &amp;nbsp; for (int byte = 0; byte&amp;lt;nofBytes*8; byte+=8){&lt;/div&gt;&lt;div&gt;&amp;nbsp; &amp;nbsp; &amp;nbsp; &amp;nbsp; uint8_t xorByte = (message &amp;gt;&amp;gt; byte)&amp;amp;0xFF;&lt;/div&gt;&lt;div&gt;&amp;nbsp; &amp;nbsp; &amp;nbsp; &amp;nbsp; result ^= xorByte;&lt;/div&gt;&lt;div&gt;&amp;nbsp; &amp;nbsp; }&lt;/div&gt;&lt;div&gt;&amp;nbsp; &amp;nbsp; return result;&lt;/div&gt;&lt;div&gt;}&lt;/div&gt;" style="shape=note;size=20;whiteSpace=wrap;html=1;horizontal=1;verticalAlign=top;align=left;" parent="1" vertex="1">
          <mxGeometry x="880" y="442" width="640" height="668" as="geometry" />
        </mxCell>
        <mxCell id="P6J_Eufu3Yy9P1KESDC--15" value="sendMessage(msg, nofBytes) / messageChannel.write(Message(msg, nofBytes)&lt;br&gt;sendShoot(damage, playerNum, teamNum=0) / msg = constructShootMessage(damage, playerNum, teamNum); messageChannel.write(msg)" style="shape=rect;rounded=1;html=1;whiteSpace=wrap;align=center;" parent="1" vertex="1">
          <mxGeometry x="320" y="290" width="510" height="60" as="geometry" />
        </mxCell>
        <mxCell id="P6J_Eufu3Yy9P1KESDC--17" style="edgeStyle=orthogonalEdgeStyle;rounded=0;orthogonalLoop=1;jettySize=auto;html=1;" parent="1" source="P6J_Eufu3Yy9P1KESDC--16" target="P6J_Eufu3Yy9P1KESDC--15" edge="1">
          <mxGeometry relative="1" as="geometry" />
        </mxCell>
        <mxCell id="P6J_Eufu3Yy9P1KESDC--16" value="" style="shape=ellipse;html=1;fillColor=strokeColor;fontSize=18;fontColor=#ffffff;" parent="1" vertex="1">
          <mxGeometry x="230" y="300" width="40" height="40" as="geometry" />
        </mxCell>
        <mxCell id="P6J_Eufu3Yy9P1KESDC--18" value="" style="endArrow=none;html=1;rounded=0;entryX=1;entryY=0.347;entryDx=0;entryDy=0;entryPerimeter=0;exitX=0;exitY=0.347;exitDx=0;exitDy=0;exitPerimeter=0;" parent="1" edge="1">
          <mxGeometry width="50" height="50" relative="1" as="geometry">
            <mxPoint x="200" y="370" as="sourcePoint" />
            <mxPoint x="850" y="370" as="targetPoint" />
          </mxGeometry>
        </mxCell>
        <mxCell id="fBTz7Mm6txu1qJoYbQGV-18" value="after(565 us)" style="edgeStyle=orthogonalEdgeStyle;rounded=0;orthogonalLoop=1;jettySize=auto;html=1;" edge="1" parent="1" source="fBTz7Mm6txu1qJoYbQGV-1" target="fBTz7Mm6txu1qJoYbQGV-17">
          <mxGeometry x="-0.2" y="-10" relative="1" as="geometry">
            <Array as="points">
              <mxPoint x="400" y="1200" />
            </Array>
            <mxPoint as="offset" />
          </mxGeometry>
        </mxCell>
        <mxCell id="fBTz7Mm6txu1qJoYbQGV-1" value="&lt;p style=&quot;margin:0px;margin-top:4px;text-align:center;&quot;&gt;sendZero&lt;/p&gt;&lt;hr&gt;&lt;p&gt;&lt;/p&gt;&lt;p style=&quot;margin:0px;margin-left:8px;text-align:left;&quot;&gt;sendPin.enable();&lt;/p&gt;&lt;p style=&quot;margin:0px;margin-left:8px;text-align:left;&quot;&gt;dataTimer.sleep_us(560);&lt;/p&gt;&lt;p style=&quot;margin:0px;margin-left:8px;text-align:left;&quot;&gt;sendPin.disable();&lt;/p&gt;" style="shape=mxgraph.sysml.simpleState;html=1;overflow=fill;whiteSpace=wrap;align=center;" vertex="1" parent="1">
          <mxGeometry x="320" y="1070" width="160" height="100" as="geometry" />
        </mxCell>
        <mxCell id="fBTz7Mm6txu1qJoYbQGV-19" value="after(1690 us)" style="edgeStyle=orthogonalEdgeStyle;rounded=0;orthogonalLoop=1;jettySize=auto;html=1;" edge="1" parent="1" source="fBTz7Mm6txu1qJoYbQGV-2" target="fBTz7Mm6txu1qJoYbQGV-17">
          <mxGeometry x="-0.3517" y="10" relative="1" as="geometry">
            <Array as="points">
              <mxPoint x="580" y="1200" />
            </Array>
            <mxPoint as="offset" />
          </mxGeometry>
        </mxCell>
        <mxCell id="fBTz7Mm6txu1qJoYbQGV-2" value="&lt;p style=&quot;margin:0px;margin-top:4px;text-align:center;&quot;&gt;sendOne&lt;/p&gt;&lt;hr&gt;&lt;p&gt;&lt;/p&gt;&lt;p style=&quot;margin:0px;margin-left:8px;text-align:left;&quot;&gt;sendPin.enable();&lt;/p&gt;&lt;p style=&quot;margin:0px;margin-left:8px;text-align:left;&quot;&gt;dataTimer.sleep_us(560);&lt;/p&gt;&lt;p style=&quot;margin:0px;margin-left:8px;text-align:left;&quot;&gt;sendPin.disable();&lt;/p&gt;" style="shape=mxgraph.sysml.simpleState;html=1;overflow=fill;whiteSpace=wrap;align=center;" vertex="1" parent="1">
          <mxGeometry x="510" y="1070" width="150" height="96.43" as="geometry" />
        </mxCell>
        <mxCell id="fBTz7Mm6txu1qJoYbQGV-10" value="after(9 ms)" style="edgeStyle=orthogonalEdgeStyle;rounded=0;orthogonalLoop=1;jettySize=auto;html=1;" edge="1" parent="1" source="fBTz7Mm6txu1qJoYbQGV-3" target="fBTz7Mm6txu1qJoYbQGV-11">
          <mxGeometry relative="1" as="geometry">
            <mxPoint x="490" y="810" as="targetPoint" />
          </mxGeometry>
        </mxCell>
        <mxCell id="fBTz7Mm6txu1qJoYbQGV-3" value="&lt;p style=&quot;margin:0px;margin-top:4px;text-align:center;&quot;&gt;sendStart&lt;/p&gt;&lt;hr&gt;&lt;p&gt;&lt;/p&gt;&lt;p style=&quot;margin:0px;margin-left:8px;text-align:left;&quot;&gt;sendPin.enable()&lt;/p&gt;" style="shape=mxgraph.sysml.simpleState;html=1;overflow=fill;whiteSpace=wrap;align=center;" vertex="1" parent="1">
          <mxGeometry x="430" y="680" width="120" height="60" as="geometry" />
        </mxCell>
        <mxCell id="fBTz7Mm6txu1qJoYbQGV-25" value="after(6 ms)" style="edgeStyle=orthogonalEdgeStyle;rounded=0;orthogonalLoop=1;jettySize=auto;html=1;" edge="1" parent="1" source="fBTz7Mm6txu1qJoYbQGV-4" target="P6J_Eufu3Yy9P1KESDC--3">
          <mxGeometry x="-0.8735" relative="1" as="geometry">
            <Array as="points">
              <mxPoint x="715" y="515" />
            </Array>
            <mxPoint as="offset" />
          </mxGeometry>
        </mxCell>
        <mxCell id="fBTz7Mm6txu1qJoYbQGV-4" value="&lt;p style=&quot;margin:0px;margin-top:4px;text-align:center;&quot;&gt;sendEnd&lt;/p&gt;&lt;hr&gt;&lt;p&gt;&lt;/p&gt;&lt;p style=&quot;margin:0px;margin-left:8px;text-align:left;&quot;&gt;sendPin.enable()&lt;/p&gt;&lt;p style=&quot;margin:0px;margin-left:8px;text-align:left;&quot;&gt;sleep_us(560)&lt;/p&gt;&lt;p style=&quot;margin:0px;margin-left:8px;text-align:left;&quot;&gt;sendPin.disable()&lt;/p&gt;" style="shape=mxgraph.sysml.simpleState;html=1;overflow=fill;whiteSpace=wrap;align=center;" vertex="1" parent="1">
          <mxGeometry x="640" y="883.75" width="150" height="92.5" as="geometry" />
        </mxCell>
        <mxCell id="fBTz7Mm6txu1qJoYbQGV-7" value="[msg.nofBytes!=0] / bitsToSend = 8 * nofBytes" style="edgeStyle=orthogonalEdgeStyle;rounded=0;orthogonalLoop=1;jettySize=auto;html=1;" edge="1" parent="1" source="fBTz7Mm6txu1qJoYbQGV-6" target="fBTz7Mm6txu1qJoYbQGV-3">
          <mxGeometry relative="1" as="geometry" />
        </mxCell>
        <mxCell id="fBTz7Mm6txu1qJoYbQGV-8" value="[else]" style="edgeStyle=orthogonalEdgeStyle;rounded=0;orthogonalLoop=1;jettySize=auto;html=1;" edge="1" parent="1" source="fBTz7Mm6txu1qJoYbQGV-6" target="P6J_Eufu3Yy9P1KESDC--3">
          <mxGeometry x="-0.7" y="10" relative="1" as="geometry">
            <Array as="points">
              <mxPoint x="400" y="610" />
              <mxPoint x="400" y="515" />
            </Array>
            <mxPoint as="offset" />
          </mxGeometry>
        </mxCell>
        <mxCell id="fBTz7Mm6txu1qJoYbQGV-6" value="" style="rhombus;whiteSpace=wrap;html=1;" vertex="1" parent="1">
          <mxGeometry x="470" y="590" width="40" height="40" as="geometry" />
        </mxCell>
        <mxCell id="fBTz7Mm6txu1qJoYbQGV-13" value="after(4.5 ms) / sendBit = msg.msg &amp;amp; 1" style="edgeStyle=orthogonalEdgeStyle;rounded=0;orthogonalLoop=1;jettySize=auto;html=1;" edge="1" parent="1" source="fBTz7Mm6txu1qJoYbQGV-11" target="fBTz7Mm6txu1qJoYbQGV-21">
          <mxGeometry x="0.0476" relative="1" as="geometry">
            <mxPoint x="490" y="900" as="targetPoint" />
            <mxPoint as="offset" />
          </mxGeometry>
        </mxCell>
        <mxCell id="fBTz7Mm6txu1qJoYbQGV-11" value="&lt;p style=&quot;margin:0px;margin-top:4px;text-align:center;&quot;&gt;sendLeadPause&lt;/p&gt;&lt;hr&gt;&lt;p&gt;&lt;/p&gt;&lt;p style=&quot;margin:0px;margin-left:8px;text-align:left;&quot;&gt;sendPin.disable()&lt;/p&gt;" style="shape=mxgraph.sysml.simpleState;html=1;overflow=fill;whiteSpace=wrap;align=center;" vertex="1" parent="1">
          <mxGeometry x="430" y="787" width="120" height="60" as="geometry" />
        </mxCell>
        <mxCell id="fBTz7Mm6txu1qJoYbQGV-14" style="edgeStyle=orthogonalEdgeStyle;rounded=0;orthogonalLoop=1;jettySize=auto;html=1;" edge="1" parent="1" source="fBTz7Mm6txu1qJoYbQGV-12" target="fBTz7Mm6txu1qJoYbQGV-1">
          <mxGeometry relative="1" as="geometry">
            <Array as="points">
              <mxPoint x="400" y="1010" />
            </Array>
          </mxGeometry>
        </mxCell>
        <mxCell id="fBTz7Mm6txu1qJoYbQGV-16" value="[else]" style="edgeLabel;html=1;align=center;verticalAlign=middle;resizable=0;points=[];" vertex="1" connectable="0" parent="fBTz7Mm6txu1qJoYbQGV-14">
          <mxGeometry x="0.2894" y="-2" relative="1" as="geometry">
            <mxPoint x="2" y="16" as="offset" />
          </mxGeometry>
        </mxCell>
        <mxCell id="fBTz7Mm6txu1qJoYbQGV-15" value="[sendBit]" style="edgeStyle=orthogonalEdgeStyle;rounded=0;orthogonalLoop=1;jettySize=auto;html=1;" edge="1" parent="1" source="fBTz7Mm6txu1qJoYbQGV-12" target="fBTz7Mm6txu1qJoYbQGV-2">
          <mxGeometry x="0.5385" relative="1" as="geometry">
            <Array as="points">
              <mxPoint x="580" y="1010" />
            </Array>
            <mxPoint as="offset" />
          </mxGeometry>
        </mxCell>
        <mxCell id="fBTz7Mm6txu1qJoYbQGV-12" value="" style="rhombus;whiteSpace=wrap;html=1;" vertex="1" parent="1">
          <mxGeometry x="470" y="990" width="40" height="40" as="geometry" />
        </mxCell>
        <mxCell id="fBTz7Mm6txu1qJoYbQGV-23" value="bitsToSend -= 1&lt;br&gt;msg.msg = msg.msg &amp;gt;&amp;gt; 1" style="edgeStyle=orthogonalEdgeStyle;rounded=0;orthogonalLoop=1;jettySize=auto;html=1;" edge="1" parent="1" source="fBTz7Mm6txu1qJoYbQGV-17" target="fBTz7Mm6txu1qJoYbQGV-21">
          <mxGeometry x="-0.7612" y="20" relative="1" as="geometry">
            <Array as="points">
              <mxPoint x="490" y="1240" />
              <mxPoint x="290" y="1240" />
              <mxPoint x="290" y="930" />
            </Array>
            <mxPoint as="offset" />
          </mxGeometry>
        </mxCell>
        <mxCell id="fBTz7Mm6txu1qJoYbQGV-17" value="" style="rhombus;whiteSpace=wrap;html=1;" vertex="1" parent="1">
          <mxGeometry x="470" y="1180" width="40" height="40" as="geometry" />
        </mxCell>
        <mxCell id="fBTz7Mm6txu1qJoYbQGV-22" value="[else]" style="edgeStyle=orthogonalEdgeStyle;rounded=0;orthogonalLoop=1;jettySize=auto;html=1;" edge="1" parent="1" source="fBTz7Mm6txu1qJoYbQGV-21" target="fBTz7Mm6txu1qJoYbQGV-12">
          <mxGeometry relative="1" as="geometry" />
        </mxCell>
        <mxCell id="fBTz7Mm6txu1qJoYbQGV-24" value="[bitsToSend == 0]" style="edgeStyle=orthogonalEdgeStyle;rounded=0;orthogonalLoop=1;jettySize=auto;html=1;" edge="1" parent="1" source="fBTz7Mm6txu1qJoYbQGV-21" target="fBTz7Mm6txu1qJoYbQGV-4">
          <mxGeometry x="0.0769" y="-10" relative="1" as="geometry">
            <mxPoint as="offset" />
          </mxGeometry>
        </mxCell>
        <mxCell id="fBTz7Mm6txu1qJoYbQGV-21" value="" style="rhombus;whiteSpace=wrap;html=1;" vertex="1" parent="1">
          <mxGeometry x="470" y="910" width="40" height="40" as="geometry" />
        </mxCell>
      </root>
    </mxGraphModel>
  </diagram>
</mxfile>
